<svg width="24" height="25" viewBox="0 0 24 25" fill="none" xmlns="http://www.w3.org/2000/svg">
<path fill-rule="evenodd" clip-rule="evenodd" d="M12 8.03125C10.8954 8.03125 10 8.92668 10 10.0312C10 11.1358 10.8954 12.0312 12 12.0312C13.1046 12.0312 14 11.1358 14 10.0312C14 8.92668 13.1046 8.03125 12 8.03125ZM8 10.0312C8 7.82211 9.79086 6.03125 12 6.03125C14.2091 6.03125 16 7.82211 16 10.0312C16 12.2404 14.2091 14.0312 12 14.0312C9.79086 14.0312 8 12.2404 8 10.0312Z" fill="currentColor"/>
<path fill-rule="evenodd" clip-rule="evenodd" d="M5.63604 3.66729C7.32387 1.97946 9.61305 1.03125 12 1.03125C14.3869 1.03125 16.6761 1.97946 18.364 3.66729C20.0518 5.35512 21 7.6443 21 10.0312C21 11.0479 20.8921 11.9434 20.611 12.7916C20.3283 13.6444 19.8871 14.3996 19.2803 15.1566C19.2723 15.1666 19.2641 15.1765 19.2557 15.1862L12.7557 22.6862C12.5657 22.9053 12.29 23.0312 12 23.0312C11.71 23.0312 11.4343 22.9053 11.2443 22.6862L4.74431 15.1862C4.73591 15.1765 4.72771 15.1666 4.71969 15.1566C4.11294 14.3996 3.67169 13.6444 3.38904 12.7916C3.10786 11.9434 3 11.0479 3 10.0312C3 7.6443 3.94821 5.35512 5.63604 3.66729ZM12 3.03125C10.1435 3.03125 8.36301 3.76875 7.05025 5.0815C5.7375 6.39426 5 8.17473 5 10.0312C5 10.9066 5.09314 11.5761 5.28746 12.1624C5.47877 12.7395 5.78415 13.2842 6.26862 13.8912L12 20.5044L17.7314 13.8912C18.2158 13.2842 18.5212 12.7395 18.7125 12.1624C18.9069 11.5761 19 10.9066 19 10.0312C19 8.17473 18.2625 6.39426 16.9497 5.0815C15.637 3.76875 13.8565 3.03125 12 3.03125Z" fill="currentColor"/>
</svg>
