<svg width="66" height="63" viewBox="0 0 66 63" fill="none" xmlns="http://www.w3.org/2000/svg">
<g clip-path="url(#clip0_93_6883)">
<path d="M34.804 63.0927C37.1999 57.2576 39.5915 51.4196 41.9774 45.5793C43.5664 41.6881 46.1487 38.2391 49.3518 35.5416C49.4207 35.4833 49.9766 35.029 51.0168 34.18C51.6975 33.6245 52.3107 32.8888 52.8575 31.9724C55.0427 28.3069 53.5536 23.6788 49.157 22.771" stroke="#757575" stroke-width="2.40227"/>
<path d="M49.1584 22.7714C48.9164 22.7061 48.7509 22.5428 48.6621 22.2805" stroke="#808080" stroke-width="2.40227"/>
<path d="M48.6605 22.2802C48.6871 22.0871 48.765 21.8142 48.893 21.4619C49.1746 20.6868 49.3091 19.824 49.2958 18.872C49.2557 16.0061 47.4513 13.6233 44.5284 13.0456" stroke="#757575" stroke-width="2.40227"/>
<path d="M44.5288 13.0456C43.4621 12.8572 42.3718 12.9672 41.2594 13.3743C40.9755 13.4783 40.674 13.6091 40.3549 13.7667C40.3299 13.7795 40.3042 13.7887 40.2769 13.794C39.7996 13.8878 39.6241 13.6152 39.4564 13.1548C38.8386 11.4571 37.6599 10.0733 35.973 9.39695C32.7857 8.11856 29.6083 9.93492 28.1518 12.7969C28.0176 13.06 27.8657 13.5132 27.6574 13.6548C27.4322 13.8081 27.1987 13.8078 26.9566 13.6548C25.2966 12.6023 23.3275 12.3411 21.5382 13.11C18.505 14.4141 17.255 17.8905 17.688 20.9778C18.3465 25.6711 17.9173 30.4009 16.1207 34.7851C13.7059 40.6772 11.291 46.5692 8.8752 52.4609" stroke="#808080" stroke-width="2.40227"/>
<path d="M44.5293 13.0454C45.2872 14.0351 45.7403 15.118 45.8873 16.2948" stroke="#E9E9E9" stroke-width="2.40227"/>
<path d="M45.8891 16.2953C45.3376 15.8026 44.7582 15.5091 44.1483 15.4158C40.4929 14.8537 37.0721 19.4328 38.4191 22.7841C38.9803 24.1811 40.2811 24.9569 41.7699 24.838C43.9798 24.6616 45.7538 22.9432 46.5464 20.9113" stroke="#808080" stroke-width="2.40227"/>
<path d="M46.5449 20.9109C47.2762 21.3127 47.982 21.7688 48.6618 22.2801" stroke="#E9E9E9" stroke-width="2.40227"/>
<path d="M49.1562 22.7708C49.3209 23.0192 49.4774 23.2633 49.6241 23.5022C50.0872 24.2558 50.3658 25.0797 50.4604 25.975" stroke="#E9E9E9" stroke-width="2.40227"/>
<path d="M50.4614 25.9756C49.4554 25.0827 48.1007 24.8453 46.8384 25.1338C45.2227 25.5034 43.9294 26.3758 42.9602 27.7497C40.8283 30.7746 42.5552 34.3946 46.4706 33.8306" stroke="#808080" stroke-width="2.40227"/>
<path d="M46.4695 33.8302C45.1366 34.9168 43.9233 36.0863 42.831 37.3406C41.6717 38.6728 40.6728 40.1058 39.8357 41.6391C39.4078 42.4233 38.7342 43.9349 37.8164 46.1732C35.6941 51.3517 33.5698 56.5326 31.4437 61.715" stroke="#E9E9E9" stroke-width="2.40227"/>
<path d="M32.781 21.4785C34.9497 21.8136 37.0558 19.831 37.4864 17.0497C37.9165 14.268 36.5078 11.7414 34.3395 11.4059C32.1708 11.0708 30.0648 13.0534 29.6341 15.8347C29.2041 18.6164 30.6128 21.143 32.781 21.4785Z" stroke="#808080" stroke-width="2.40227"/>
<path d="M24.6636 25.1658C26.8385 24.8715 28.2949 22.3735 27.9176 19.585C27.5404 16.7964 25.4726 14.775 23.2977 15.0694C21.1227 15.3637 19.6664 17.8616 20.0436 20.6502C20.4209 23.4388 22.4886 25.4602 24.6636 25.1658Z" stroke="#808080" stroke-width="2.40227"/>
<path d="M29.3294 39.509C29.6749 39.6507 29.9916 39.7959 30.2794 39.9446C31.9446 40.8051 32.9497 41.3872 34.3623 41.8875C35.1985 42.1832 36.0001 42.3145 36.7672 42.2813C38.5172 42.2048 39.9788 41.0317 40.7256 39.502C41.5766 37.7582 41.3166 35.4954 40.7924 33.6924C40.4828 32.6233 40.2176 31.5154 39.9978 30.369C39.7011 28.8271 39.2121 27.2084 38.2943 25.9854C37.6279 25.099 36.696 24.4669 35.6707 24.0465C34.6445 23.6257 33.538 23.422 32.4412 23.5854C30.929 23.812 29.4444 24.6214 28.1506 25.5112C27.1883 26.1729 26.2217 26.7757 25.2506 27.3196C23.6119 28.2347 21.8382 29.6637 21.2201 31.5029C20.6779 33.1166 20.8952 34.978 22.0873 36.262C22.6103 36.8241 23.2734 37.2934 24.0765 37.6699C25.4337 38.3054 26.5581 38.5964 28.348 39.1527C28.6574 39.2488 28.9852 39.3668 29.3294 39.509Z" stroke="#808080" stroke-width="2.40227"/>
<path d="M46.544 20.9112C46.8111 20.2036 46.9248 19.477 46.8852 18.7336C46.834 17.7804 46.5017 16.9674 45.8867 16.2952" stroke="#757575" stroke-width="2.40227"/>
<path d="M34.2318 12.6235C34.0826 12.5942 33.9302 12.5833 33.7764 12.5893C33.2687 12.6103 32.7586 12.8245 32.3044 13.2075C31.8866 13.5604 31.5281 14.0441 31.2631 14.6155C30.6954 15.837 30.618 17.3177 31.0592 18.4912C31.2902 19.1047 31.6491 19.5962 32.0953 19.9097" stroke="#813951" stroke-width="2.40227"/>
<path d="M32.0947 19.9099C32.489 20.1867 32.9377 20.3148 33.4 20.2839C33.8405 20.2528 34.2813 20.0793 34.6845 19.7752C35.1485 19.4248 35.5479 18.9162 35.8398 18.3032C36.1419 17.6681 36.316 16.9466 36.3434 16.2219C36.3726 15.4365 36.2272 14.6837 35.9261 14.0645C35.6561 13.5085 35.2722 13.0835 34.8158 12.8349C34.6303 12.7337 34.4338 12.6619 34.2312 12.6237" stroke="#76344A" stroke-width="2.40227"/>
<path d="M32.0959 19.9099C32.2515 19.8114 32.4068 19.716 32.5606 19.6245C33.2909 19.189 33.8723 18.5226 34.2318 17.7663C35.04 16.0654 35.0408 14.3515 34.2324 12.6238" stroke="#EB618F" stroke-width="2.40227"/>
<path d="M43.8949 16.6076C43.4919 16.5421 43.0524 16.5813 42.6052 16.7225C41.9485 16.9304 41.3021 17.3486 40.7546 17.9215C40.23 18.4708 39.82 19.1362 39.5768 19.8338C39.3648 20.4445 39.2881 21.0568 39.3558 21.6111C39.4446 22.3494 39.7836 22.9457 40.315 23.2974" stroke="#813951" stroke-width="2.40227"/>
<path d="M40.3161 23.2972C40.6326 23.507 41.0071 23.6233 41.418 23.6404C41.869 23.6586 42.351 23.5557 42.8286 23.3403C44.0288 22.7993 45.0574 21.6121 45.4869 20.2757C45.6749 19.6915 45.7367 19.1103 45.6687 18.5833C45.6045 18.0898 45.429 17.6592 45.1545 17.3229C44.839 16.9369 44.4051 16.6899 43.896 16.6073" stroke="#76344A" stroke-width="2.40227"/>
<path d="M40.3161 23.2973C42.0198 22.6545 43.1964 21.4995 43.8451 19.8319C44.1745 18.9832 44.2781 18.0484 44.0465 17.166C43.9978 16.9826 43.948 16.7966 43.8961 16.6075" stroke="#EB618F" stroke-width="2.40227"/>
<path d="M46.4691 33.8302C47.8578 33.5595 49.0475 32.8836 50.0394 31.802C51.0014 30.7531 51.6479 29.2513 51.4175 27.8232C51.3014 27.1032 50.9828 26.4867 50.4599 25.9751" stroke="#757575" stroke-width="2.40227"/>
<path d="M22.9708 23.5701C23.8129 24.1271 24.7602 24.1064 25.512 23.5142C25.9521 23.1682 26.2994 22.6449 26.5149 22.0072C26.9844 20.616 26.757 18.8863 25.9422 17.6584C25.5046 16.9975 24.9325 16.5391 24.3181 16.3552" stroke="#76344A" stroke-width="2.40227"/>
<path d="M24.3204 16.3549C23.5575 16.1266 22.7892 16.3391 22.1985 16.9425C21.8188 17.3308 21.5299 17.8616 21.3623 18.4817C20.9738 19.916 21.2836 21.6158 22.1419 22.7673C22.3876 23.0961 22.6687 23.3682 22.9732 23.5699" stroke="#813951" stroke-width="2.40227"/>
<path d="M24.3203 16.3552C25.214 17.9018 25.4451 19.486 25.0128 21.1074C24.8552 21.6976 24.5931 22.2164 24.2271 22.6651C23.8982 23.0688 23.4806 23.3702 22.9731 23.5701" stroke="#EB618F" stroke-width="2.40227"/>
<path d="M48.4881 26.2995C48.0208 26.2033 47.4983 26.2205 46.9614 26.3502C45.5925 26.6795 44.3024 27.6915 43.6609 28.9376C43.3673 29.5093 43.228 30.0949 43.2596 30.6332C43.3053 31.4098 43.6997 32.0366 44.3614 32.3836" stroke="#813951" stroke-width="2.40227"/>
<path d="M44.3626 32.3838C44.723 32.5721 45.1518 32.6712 45.6203 32.6735C46.3237 32.6779 47.0854 32.4627 47.794 32.0612C48.9607 31.4011 49.852 30.3133 50.1451 29.192C50.2948 28.6183 50.2792 28.0679 50.1008 27.5989C49.843 26.925 49.2668 26.4606 48.4893 26.2997" stroke="#76344A" stroke-width="2.40227"/>
<path d="M44.3642 32.3839C45.6688 32.0162 46.7324 31.3589 47.5542 30.4137C48.5518 29.2675 49.0332 27.7803 48.4908 26.2999" stroke="#EB618F" stroke-width="2.40227"/>
<path d="M35.0588 40.8333C36.1071 41.1842 37.3541 41.1976 38.267 40.552C40.4423 39.0157 40.3192 36.3362 39.6229 34.014C39.3304 33.0397 39.0467 31.8672 38.7715 30.4974C38.4764 29.0318 38.0066 27.4627 36.9824 26.32C36.6668 25.969 36.2456 25.6723 35.7168 25.4292" stroke="#76344A" stroke-width="2.40227"/>
<path d="M35.717 25.4293C34.6282 24.8107 33.5024 24.6167 32.3379 24.8488C31.2203 25.0706 29.9216 25.7906 28.9575 26.4459C27.8497 27.2004 26.8217 27.8405 25.8743 28.3668C23.849 29.4919 21.8082 31.2511 22.2144 33.8207C22.4883 35.5573 24.056 36.4524 25.5741 36.9871C26.4144 37.2834 27.3009 37.569 28.2319 37.8422C28.9847 38.0631 29.8424 38.36 30.4533 38.673C31.6846 39.3051 32.6276 39.7872 33.2813 40.1188C33.8631 40.4144 34.4552 40.6528 35.0589 40.8335" stroke="#813951" stroke-width="2.40227"/>
<path d="M35.7168 25.4292C36.2045 26.2379 36.5534 26.9864 36.7655 27.6755C36.9978 28.4277 37.1821 29.1471 37.32 29.8353C37.5459 30.9721 37.7863 31.9667 38.0401 32.8188C38.8421 35.5145 39.0032 38.8314 36.0994 40.4112C35.8029 40.5725 35.4047 40.6824 35.0588 40.8333" stroke="#EB618F" stroke-width="2.40227"/>
<path d="M36.8449 8.43344C38.3079 9.17477 39.4098 10.2748 40.1518 11.7339C40.2504 11.9268 40.35 12.1278 40.4521 12.3364C40.4648 12.3613 40.4943 12.3723 40.5208 12.3613C42.2508 11.6328 44.0111 11.5473 45.8003 12.1055L46.5035 12.3938C50.0504 14.1674 51.2276 18.0423 50.0959 21.6824C50.0852 21.7164 50.1037 21.7515 50.1378 21.7621C52.9475 22.6345 54.9346 25.0747 55.0624 28.0369C55.1859 30.8974 53.6997 33.6847 51.4191 35.4269C47.814 38.1821 44.9164 41.6751 43.1928 45.8599C42.0605 48.6081 39.7048 54.3478 36.1283 63.078C35.9143 63.6001 35.8212 63.9743 35.2441 63.9318L35.0413 63.8486C34.7892 63.6476 34.7094 63.3956 34.8038 63.0932C37.1997 57.258 39.5913 51.4201 41.9773 45.5798C43.5663 41.6885 46.1485 38.2396 49.3516 35.5421C49.4206 35.4837 49.9764 35.0294 51.0166 34.1804C51.6974 33.6249 52.3105 32.8892 52.8574 31.9728C55.0425 28.3073 53.5534 23.6792 49.1569 22.7715C48.9149 22.7062 48.7493 22.5429 48.6606 22.2806C48.6871 22.0875 48.765 21.8145 48.893 21.4623C49.1746 20.6872 49.3091 19.8243 49.2958 18.8724C49.2557 16.0065 47.4514 13.6237 44.5284 13.046C43.4618 12.8576 42.3714 12.9676 41.2591 13.3747C40.9751 13.4787 40.6736 13.6095 40.3545 13.7671C40.3296 13.7799 40.3039 13.7891 40.2765 13.7944C39.7993 13.8882 39.6237 13.6156 39.456 13.1552C38.8382 11.4575 37.6596 10.0737 35.9726 9.39736C32.7853 8.11896 29.6079 9.93532 28.1514 12.7973C28.0172 13.0604 27.8654 13.5136 27.6571 13.6552C27.4319 13.8085 27.1984 13.8082 26.9562 13.6552C25.2962 12.6027 23.3271 12.3415 21.5378 13.1104C18.5046 14.4145 17.2547 17.8909 17.6877 20.9782C18.3461 25.6715 17.917 30.4014 16.1204 34.7855C13.7055 40.6776 11.2906 46.5696 8.87483 52.4613C8.74525 52.7372 8.51521 52.8622 8.18283 52.8356L7.98002 52.7525C7.71155 52.5272 7.64979 52.2365 7.79532 51.8816C12.5137 40.3797 14.9208 34.5119 15.0157 34.2777C16.5895 30.4076 17.0722 26.157 16.5863 22.0379C16.4807 21.1425 16.4219 20.6039 16.4108 20.425C16.2811 18.3581 16.7825 16.1991 17.9936 14.5C20.0919 11.5546 23.7509 10.5992 26.99 12.2674C27.018 12.2821 27.0526 12.27 27.0673 12.242C28.8209 8.84271 32.3684 6.9291 36.1464 8.147L36.8449 8.43344Z" fill="#0B0C0C"/>
<path d="M44.5288 13.0456C45.2867 14.0352 45.7398 15.1182 45.8868 16.295C45.3353 15.8023 44.7559 15.5088 44.146 15.4156C40.4906 14.8534 37.0699 19.4325 38.4168 22.7838C38.978 24.1809 40.2788 24.9566 41.7676 24.8377C43.9775 24.6614 45.7515 22.9429 46.5441 20.911C47.2754 21.3128 47.9811 21.7689 48.661 22.2802C48.7497 22.5425 48.9153 22.7058 49.1572 22.7711C49.3219 23.0195 49.4784 23.2636 49.6251 23.5025C50.0882 24.2561 50.3667 25.08 50.4614 25.9753C49.4554 25.0825 48.1006 24.845 46.8384 25.1336C45.2227 25.5031 43.9294 26.3756 42.9602 27.7495C40.8282 30.7743 42.5552 34.3944 46.4705 33.8304C45.1377 34.917 43.9244 36.0866 42.8321 37.3409C41.6728 38.673 40.6739 40.106 39.8368 41.6393C39.4088 42.4235 38.7353 43.9351 37.8175 46.1735C35.6952 51.3519 33.5708 56.5329 31.4448 61.7153L8.8752 52.4609C11.291 46.5692 13.7059 40.6772 16.1207 34.7851C17.9173 30.4009 18.3465 25.6711 17.688 20.9778C17.255 17.8905 18.505 14.4141 21.5382 13.11C23.3275 12.3411 25.2966 12.6023 26.9566 13.6548C27.1987 13.8078 27.4322 13.8081 27.6574 13.6548C27.8657 13.5132 28.0176 13.06 28.1518 12.7969C29.6083 9.93492 32.7857 8.11856 35.973 9.39695C37.6599 10.0733 38.8386 11.4571 39.4564 13.1548C39.6241 13.6152 39.7996 13.8878 40.2769 13.794C40.3042 13.7887 40.3299 13.7795 40.3549 13.7667C40.674 13.6091 40.9755 13.4783 41.2594 13.3743C42.3718 12.9672 43.4621 12.8572 44.5288 13.0456ZM32.783 21.4786C34.9517 21.8137 37.0578 19.8312 37.4884 17.0498C37.9185 14.2681 36.5098 11.7415 34.3415 11.4061C32.1728 11.0709 30.0668 13.0535 29.6361 15.8349C29.2061 18.6166 30.6148 21.1432 32.783 21.4786ZM24.6648 25.1661C26.8397 24.8718 28.2961 22.3739 27.9188 19.5853C27.5416 16.7967 25.4738 14.7753 23.2989 15.0697C21.1239 15.364 19.6676 17.8619 20.0448 20.6505C20.4221 23.4391 22.4898 25.4605 24.6648 25.1661ZM29.3291 39.509C29.6746 39.6507 29.9913 39.7958 30.2791 39.9446C31.9443 40.805 32.9494 41.3872 34.362 41.8874C35.1982 42.1831 35.9998 42.3144 36.7669 42.2813C38.5169 42.2048 39.9785 41.0317 40.7253 39.5019C41.5763 37.7582 41.3163 35.4954 40.7921 33.6923C40.4825 32.6232 40.2173 31.5153 39.9975 30.369C39.7008 28.827 39.2118 27.2084 38.294 25.9854C37.6276 25.099 36.6957 24.4668 35.6704 24.0464C34.6442 23.6256 33.5377 23.422 32.4409 23.5853C30.9287 23.812 29.4441 24.6214 28.1503 25.5112C27.188 26.1728 26.2214 26.7756 25.2503 27.3196C23.6116 28.2347 21.8379 29.6636 21.2198 31.5028C20.6776 33.1165 20.8949 34.978 22.087 36.262C22.61 36.8241 23.2731 37.2934 24.0762 37.6699C25.4334 38.3053 26.5578 38.5964 28.3477 39.1526C28.6571 39.2488 28.9849 39.3667 29.3291 39.509Z" fill="#F4F4F4"/>
<path d="M48.6605 22.28C47.9807 21.7687 47.2749 21.3126 46.5437 20.9108C46.8108 20.2032 46.9244 19.4766 46.8849 18.7332C46.8337 17.78 46.5013 16.967 45.8864 16.2948C45.7394 15.118 45.2863 14.035 44.5284 13.0453C47.4513 13.6231 49.2557 16.0059 49.2958 18.8718C49.3091 19.8237 49.1746 20.6866 48.893 21.4617C48.765 21.8139 48.6871 22.0869 48.6605 22.28Z" fill="#DEDEDE"/>
<path d="M32.783 21.4787C30.6147 21.1432 29.206 18.6167 29.6361 15.835C30.0667 13.0536 32.1728 11.071 34.3415 11.4062C36.5097 11.7416 37.9184 14.2682 37.4884 17.0499C37.0577 19.8313 34.9517 21.8138 32.783 21.4787ZM34.2319 12.6239C34.0827 12.5945 33.9304 12.5836 33.7765 12.5896C33.2689 12.6107 32.7588 12.8249 32.3045 13.2078C31.8867 13.5608 31.5283 14.0444 31.2633 14.6158C30.6955 15.8373 30.6181 17.318 31.0593 18.4915C31.2903 19.105 31.6492 19.5965 32.0954 19.91C32.4897 20.1868 32.9384 20.3149 33.4008 20.284C33.8412 20.253 34.282 20.0794 34.6853 19.7754C35.1492 19.4249 35.5486 18.9163 35.8405 18.3034C36.1426 17.6683 36.3167 16.9467 36.3441 16.222C36.3733 15.4366 36.2279 14.6838 35.9268 14.0647C35.6569 13.5087 35.2729 13.0836 34.8165 12.8351C34.631 12.7338 34.4345 12.662 34.2319 12.6239Z" fill="#0B0C0C"/>
<path d="M45.8871 16.2953C46.5021 16.9675 46.8345 17.7805 46.8856 18.7337C46.9252 19.4771 46.8115 20.2037 46.5444 20.9113C45.7518 22.9432 43.9778 24.6616 41.7679 24.838C40.2791 24.9569 38.9783 24.1811 38.4171 22.7841C37.0702 19.4328 40.491 14.8537 44.1463 15.4158C44.7563 15.5091 45.3357 15.8026 45.8871 16.2953ZM43.8945 16.6079C43.4914 16.5424 43.0519 16.5816 42.6047 16.7228C41.948 16.9307 41.3016 17.3489 40.7542 17.9218C40.2295 18.4711 39.8195 19.1365 39.5763 19.8341C39.3643 20.4448 39.2876 21.0571 39.3554 21.6114C39.4442 22.3497 39.7831 22.946 40.3145 23.2977C40.631 23.5076 41.0056 23.6239 41.4164 23.641C41.8674 23.6592 42.3494 23.5563 42.8271 23.3409C44.0272 22.7998 45.0558 21.6126 45.4853 20.2763C45.6734 19.692 45.7351 19.1108 45.6671 18.5839C45.6029 18.0904 45.4274 17.6598 45.1529 17.3235C44.8374 16.9375 44.4035 16.6905 43.8945 16.6079Z" fill="#0B0C0C"/>
<path d="M32.0947 19.9101C32.2503 19.8116 32.4056 19.7162 32.5594 19.6247C33.2896 19.1892 33.8711 18.5228 34.2306 17.7665C35.0388 16.0656 35.0396 14.3517 34.2312 12.624C34.4338 12.6621 34.6303 12.7339 34.8158 12.8352C35.2722 13.0837 35.6561 13.5088 35.9261 14.0648C36.2272 14.684 36.3726 15.4367 36.3434 16.2221C36.316 16.9468 36.1419 17.6684 35.8398 18.3035C35.5479 18.9164 35.1485 19.425 34.6845 19.7755C34.2813 20.0795 33.8405 20.2531 33.4 20.2841C32.9377 20.315 32.489 20.1869 32.0947 19.9101Z" fill="#E05C88"/>
<path d="M40.3141 23.2976C42.0178 22.6548 43.1944 21.4998 43.8431 19.8322C44.1725 18.9835 44.2761 18.0487 44.0445 17.1663C43.9958 16.9829 43.946 16.7968 43.8941 16.6078C44.4031 16.6904 44.837 16.9374 45.1526 17.3234C45.427 17.6597 45.6025 18.0903 45.6667 18.5838C45.7347 19.1108 45.673 19.692 45.485 20.2762C45.0555 21.6126 44.0269 22.7997 42.8267 23.3408C42.349 23.5562 41.867 23.6591 41.416 23.6409C41.0052 23.6238 40.6306 23.5075 40.3141 23.2976Z" fill="#E05C88"/>
<path d="M34.2318 12.6238C35.0402 14.3515 35.0393 16.0654 34.2311 17.7663C33.8716 18.5226 33.2902 19.1891 32.56 19.6245C32.4062 19.7161 32.2508 19.8114 32.0953 19.9099C31.6491 19.5965 31.2902 19.1049 31.0592 18.4914C30.618 17.3179 30.6954 15.8372 31.2631 14.6157C31.5281 14.0444 31.8866 13.5607 32.3044 13.2077C32.7586 12.8248 33.2687 12.6106 33.7764 12.5895C33.9302 12.5835 34.0826 12.5944 34.2318 12.6238Z" fill="#F66596"/>
<path d="M43.8949 16.6078C43.9468 16.7969 43.9967 16.9829 44.0454 17.1663C44.2769 18.0488 44.1733 18.9835 43.844 19.8322C43.1953 21.4999 42.0186 22.6549 40.315 23.2977C39.7836 22.946 39.4446 22.3496 39.3558 21.6113C39.2881 21.0571 39.3648 20.4447 39.5768 19.8341C39.82 19.1365 40.23 18.471 40.7546 17.9217C41.3021 17.3488 41.9485 16.9306 42.6052 16.7228C43.0524 16.5815 43.4919 16.5423 43.8949 16.6078Z" fill="#F66596"/>
<path d="M34.8046 63.0933L31.4452 61.7158C33.5713 56.5334 35.6957 51.3525 37.8179 46.174C38.7358 43.9356 39.4093 42.4241 39.8372 41.6399C40.6744 40.1065 41.6732 38.6735 42.8325 37.3414C43.9248 36.0871 45.1382 34.9175 46.471 33.831C47.8597 33.5603 49.0494 32.8844 50.0413 31.8028C51.0033 30.7539 51.6498 29.2521 51.4194 27.8239C51.3033 27.104 50.9847 26.4875 50.4618 25.9759C50.3672 25.0805 50.0886 24.2567 49.6255 23.503C49.4789 23.2641 49.3223 23.0201 49.1577 22.7716C53.5542 23.6794 55.0434 28.3075 52.8582 31.9729C52.3113 32.8893 51.6982 33.625 51.0175 34.1805C49.9773 35.0296 49.4214 35.4838 49.3525 35.5422C46.1494 38.2397 43.5671 41.6886 41.9781 45.5799C39.5922 51.4202 37.2006 57.2582 34.8046 63.0933Z" fill="#DEDEDE"/>
<path d="M24.6655 25.1667C22.4906 25.4611 20.4228 23.4397 20.0456 20.6512C19.6683 17.8626 21.1247 15.3647 23.2996 15.0704C25.4746 14.776 27.5423 16.7974 27.9196 19.5859C28.2968 22.3745 26.8405 24.8724 24.6655 25.1667ZM22.9738 23.571C23.8159 24.128 24.7632 24.1073 25.5149 23.5151C25.9551 23.1692 26.3024 22.6458 26.5178 22.0081C26.9874 20.6169 26.76 18.8873 25.9452 17.6593C25.5076 16.9984 24.9355 16.5401 24.3211 16.3561C23.5581 16.1277 22.7899 16.3403 22.1992 16.9437C21.8195 17.332 21.5306 17.8628 21.363 18.4829C20.9744 19.9172 21.2843 21.617 22.1425 22.7684C22.3883 23.0973 22.6693 23.3694 22.9738 23.571Z" fill="#0B0C0C"/>
<path d="M50.4633 25.9758C50.9862 26.4874 51.3048 27.1039 51.4209 27.8239C51.6513 29.252 51.0048 30.7538 50.0428 31.8027C49.0509 32.8843 47.8612 33.5602 46.4725 33.8309C42.5572 34.3949 40.8302 30.7748 42.9622 27.75C43.9313 26.3761 45.2246 25.5036 46.8404 25.1341C48.1026 24.8455 49.4574 25.0829 50.4633 25.9758ZM48.492 26.3005C48.0247 26.2043 47.5022 26.2214 46.9654 26.3512C45.5965 26.6805 44.3063 27.6924 43.6648 28.9385C43.3712 29.5102 43.232 30.0958 43.2635 30.6341C43.3092 31.4107 43.7037 32.0375 44.3653 32.3845C44.7257 32.5728 45.1545 32.6719 45.623 32.6742C46.3264 32.6786 47.0881 32.4634 47.7967 32.0619C48.9634 31.4018 49.8547 30.3141 50.1478 29.1927C50.2975 28.619 50.2819 28.0686 50.1035 27.5996C49.8457 26.9257 49.2695 26.4613 48.492 26.3005Z" fill="#0B0C0C"/>
<path d="M24.3184 16.3552C25.2121 17.9017 25.4432 19.4859 25.0109 21.1074C24.8534 21.6975 24.5913 22.2163 24.2252 22.6651C23.8963 23.0687 23.4787 23.3702 22.9712 23.5701C22.6667 23.3685 22.3856 23.0964 22.1399 22.7675C21.2817 21.616 20.9718 19.9162 21.3603 18.4819C21.5279 17.8619 21.8169 17.3311 22.1966 16.9427C22.7873 16.3393 23.5555 16.1268 24.3184 16.3552Z" fill="#F66596"/>
<path d="M22.9708 23.5701C23.4784 23.3702 23.8959 23.0687 24.2248 22.6651C24.5909 22.2163 24.853 21.6975 25.0105 21.1074C25.4429 19.4859 25.2117 17.9018 24.3181 16.3552C24.9325 16.5391 25.5046 16.9975 25.9422 17.6584C26.757 18.8863 26.9844 20.616 26.5149 22.0072C26.2994 22.6449 25.9521 23.1682 25.512 23.5142C24.7602 24.1064 23.8129 24.1271 22.9708 23.5701Z" fill="#E05C88"/>
<path d="M44.3646 32.384C45.6692 32.0163 46.7328 31.3589 47.5546 30.4138C48.5522 29.2676 49.0337 27.7804 48.4913 26.3C49.2687 26.4608 49.845 26.9252 50.1028 27.5991C50.2812 28.0682 50.2968 28.6186 50.1471 29.1922C49.854 30.3136 48.9627 31.4013 47.796 32.0614C47.0873 32.4629 46.3257 32.6781 45.6222 32.6738C45.1538 32.6714 44.725 32.5724 44.3646 32.384Z" fill="#E05C88"/>
<path d="M48.4881 26.2998C49.0305 27.7802 48.549 29.2674 47.5514 30.4136C46.7296 31.3587 45.666 32.0161 44.3614 32.3838C43.6997 32.0368 43.3053 31.41 43.2596 30.6334C43.228 30.0951 43.3673 29.5095 43.6609 28.9379C44.3024 27.6917 45.5925 26.6798 46.9614 26.3505C47.4983 26.2208 48.0208 26.2036 48.4881 26.2998Z" fill="#F66596"/>
<path d="M35.6707 24.0465C36.696 24.4669 37.6279 25.099 38.2943 25.9854C39.2121 27.2084 39.7011 28.8271 39.9978 30.369C40.2176 31.5154 40.4828 32.6233 40.7924 33.6924C41.3166 35.4954 41.5766 37.7582 40.7256 39.502C39.9788 41.0317 38.5172 42.2048 36.7672 42.2813C36.0001 42.3145 35.1985 42.1832 34.3623 41.8875C32.9497 41.3872 31.9446 40.8051 30.2794 39.9446C29.9916 39.7959 29.6749 39.6507 29.3294 39.509C28.9852 39.3668 28.6574 39.2488 28.348 39.1527C26.5581 38.5964 25.4337 38.3054 24.0765 37.6699C23.2734 37.2934 22.6103 36.8241 22.0873 36.262C20.8952 34.978 20.6779 33.1166 21.2201 31.5029C21.8382 29.6637 23.6119 28.2347 25.2506 27.3196C26.2217 26.7757 27.1883 26.1729 28.1506 25.5112C29.4444 24.6214 30.929 23.812 32.4412 23.5854C33.538 23.422 34.6445 23.6257 35.6707 24.0465ZM35.0577 40.8334C36.106 41.1843 37.353 41.1977 38.266 40.5521C40.4413 39.0158 40.3181 36.3363 39.6219 34.0141C39.3293 33.0398 39.0456 31.8673 38.7705 30.4975C38.4754 29.0319 38.0055 27.4628 36.9814 26.3201C36.6657 25.9691 36.2445 25.6724 35.7157 25.4293C34.6269 24.8107 33.5011 24.6167 32.3366 24.8488C31.2191 25.0705 29.9203 25.7905 28.9562 26.4459C27.8485 27.2003 26.8204 27.8405 25.8731 28.3667C23.8478 29.4918 21.807 31.2511 22.2132 33.8206C22.4871 35.5573 24.0548 36.4524 25.5728 36.9871C26.4132 37.2834 27.2996 37.569 28.2306 37.8422C28.9835 38.0631 29.8412 38.36 30.452 38.673C31.6834 39.3051 32.6263 39.7871 33.28 40.1188C33.8618 40.4144 34.454 40.6528 35.0577 40.8334Z" fill="#0B0C0C"/>
<path d="M35.715 25.4296C36.2027 26.2383 36.5517 26.9868 36.7638 27.6759C36.996 28.4281 37.1803 29.1475 37.3182 29.8357C37.5441 30.9725 37.7845 31.9671 38.0383 32.8192C38.8403 35.5149 39.0015 38.8318 36.0976 40.4115C35.8011 40.5729 35.4029 40.6828 35.057 40.8337C34.4532 40.6531 33.8611 40.4147 33.2793 40.1191C32.6256 39.7874 31.6826 39.3054 30.4513 38.6732C29.8404 38.3602 28.9827 38.0634 28.2299 37.8424C27.2989 37.5693 26.4125 37.2837 25.5721 36.9873C24.0541 36.4526 22.4864 35.5576 22.2125 33.8209C21.8063 31.2514 23.8471 29.4921 25.8724 28.367C26.8197 27.8407 27.8477 27.2006 28.9555 26.4462C29.9196 25.7908 31.2184 25.0708 32.3359 24.8491C33.5004 24.6169 34.6262 24.811 35.715 25.4296Z" fill="#F66596"/>
<path d="M35.0588 40.8336C35.4047 40.6826 35.8029 40.5728 36.0994 40.4114C39.0032 38.8316 38.8421 35.5147 38.0401 32.8191C37.7863 31.967 37.5459 30.9723 37.32 29.8356C37.1821 29.1473 36.9978 28.4279 36.7655 27.6757C36.5534 26.9866 36.2045 26.2381 35.7168 25.4294C36.2456 25.6726 36.6668 25.9692 36.9824 26.3202C38.0066 27.4629 38.4764 29.032 38.7715 30.4977C39.0467 31.8674 39.3304 33.0399 39.6229 34.0143C40.3192 36.3365 40.4423 39.0159 38.267 40.5522C37.3541 41.1979 36.1071 41.1845 35.0588 40.8336Z" fill="#E05C88"/>
</g>
<defs>
<clipPath id="clip0_93_6883">
<rect width="51.9566" height="51.9566" fill="white" transform="translate(17.2871 0.413818) rotate(22.2955)"/>
</clipPath>
</defs>
</svg>
