<svg width="36" height="37" viewBox="0 0 36 37" fill="none" xmlns="http://www.w3.org/2000/svg">
<path fill-rule="evenodd" clip-rule="evenodd" d="M16.5 24.0313L16.5 12.0313L19.5 12.0312L19.5 24.0312L16.5 24.0313Z" fill="white"/>
<path fill-rule="evenodd" clip-rule="evenodd" d="M12 16.5312H24V19.5312H12V16.5312Z" fill="white"/>
<path fill-rule="evenodd" clip-rule="evenodd" d="M17.9344 4.53125H18.0656C20.1102 4.53124 21.7362 4.53123 23.0481 4.63841C24.3915 4.74817 25.537 4.97777 26.5859 5.51219C28.2794 6.37505 29.6562 7.75188 30.5191 9.44534C31.0535 10.4942 31.2831 11.6397 31.3928 12.9831C31.5 14.295 31.5 15.921 31.5 17.9656V18.0969C31.5 20.1415 31.5 21.7675 31.3928 23.0794C31.2831 24.4228 31.0535 25.5683 30.5191 26.6172C29.6562 28.3106 28.2794 29.6874 26.5859 30.5503C25.537 31.0847 24.3915 31.3143 23.0481 31.4241C21.7363 31.5313 20.1102 31.5313 18.0657 31.5312H17.9343C15.8898 31.5313 14.2637 31.5313 12.9519 31.4241C11.6085 31.3143 10.463 31.0847 9.41409 30.5503C7.72063 29.6874 6.3438 28.3106 5.48094 26.6172C4.94652 25.5683 4.71692 24.4228 4.60716 23.0794C4.49998 21.7675 4.49999 20.1415 4.5 18.0969V17.9656C4.49999 15.921 4.49998 14.295 4.60716 12.9831C4.71692 11.6397 4.94652 10.4942 5.48094 9.44534C6.3438 7.75188 7.72063 6.37505 9.41409 5.51219C10.463 4.97777 11.6085 4.74817 12.9519 4.63841C14.2638 4.53123 15.8898 4.53124 17.9344 4.53125ZM13.1962 7.62845C12.0383 7.72305 11.3315 7.90219 10.7761 8.18521C9.64708 8.76045 8.7292 9.67833 8.15396 10.8073C7.87094 11.3628 7.6918 12.0695 7.5972 13.2274C7.50117 14.4028 7.5 15.9063 7.5 18.0312C7.5 20.1562 7.50117 21.6597 7.5972 22.8351C7.6918 23.993 7.87094 24.6997 8.15396 25.2552C8.7292 26.3842 9.64708 27.302 10.7761 27.8773C11.3315 28.1603 12.0383 28.3394 13.1962 28.434C14.3716 28.5301 15.8751 28.5312 18 28.5312C20.1249 28.5312 21.6284 28.5301 22.8038 28.434C23.9617 28.3394 24.6685 28.1603 25.2239 27.8773C26.3529 27.302 27.2708 26.3842 27.846 25.2552C28.1291 24.6997 28.3082 23.993 28.4028 22.8351C28.4988 21.6597 28.5 20.1562 28.5 18.0312C28.5 15.9063 28.4988 14.4028 28.4028 13.2274C28.3082 12.0695 28.1291 11.3628 27.846 10.8073C27.2708 9.67833 26.3529 8.76045 25.2239 8.18521C24.6685 7.90219 23.9617 7.72305 22.8038 7.62845C21.6284 7.53242 20.1249 7.53125 18 7.53125C15.8751 7.53125 14.3716 7.53242 13.1962 7.62845Z" fill="white"/>
</svg>
