<svg width="21" height="21" viewBox="0 0 21 21" fill="none" xmlns="http://www.w3.org/2000/svg">
<g clip-path="url(#clip0_661_40017)">
<path d="M2.75792 16.0352C2.84071 15.6112 2.91357 15.2205 2.98974 14.833C3.05598 14.4919 3.1189 14.1507 3.19508 13.8129C3.21826 13.7036 3.15533 13.6639 3.08579 13.6175C2.50953 13.2301 1.93659 12.8393 1.35702 12.4584C1.22786 12.3723 1.18812 12.3226 1.29079 12.1769C1.67496 11.6305 2.03594 11.0741 2.41349 10.5243C2.48304 10.425 2.49297 10.3554 2.42011 10.2494C2.03263 9.68642 1.6584 9.11679 1.27092 8.55379C1.20137 8.45112 1.2113 8.40807 1.31066 8.34183C1.91341 7.94441 2.50953 7.53706 3.10897 7.13633C3.18183 7.08666 3.20832 7.03698 3.19176 6.94425C3.05267 6.25208 2.9202 5.55991 2.78441 4.87106C2.74467 4.66904 2.74467 4.67235 2.95 4.63261C3.61899 4.50345 4.29128 4.36766 4.96027 4.24181C5.02982 4.22857 5.06625 4.20207 5.07949 4.13252C5.21197 3.45029 5.35106 2.77137 5.4736 2.08914C5.50009 1.94011 5.54977 1.90699 5.68555 1.93348C6.3711 2.07258 7.05664 2.20505 7.74219 2.34415C7.86141 2.36733 7.93096 2.34415 8.00051 2.23817C8.38799 1.65198 8.78872 1.0691 9.1762 0.482913C9.24906 0.373623 9.29873 0.367 9.40471 0.43986C9.95778 0.820717 10.5175 1.19164 11.0706 1.5725C11.1798 1.64867 11.256 1.65529 11.3752 1.5725C11.9316 1.18502 12.4979 0.814094 13.0576 0.429924C13.1537 0.363688 13.1967 0.370312 13.263 0.469666C13.6471 1.03598 14.0379 1.59899 14.4089 2.16862C14.5082 2.31765 14.5943 2.37064 14.7798 2.3309C15.4521 2.18518 16.131 2.06596 16.8033 1.93017C16.9324 1.90368 16.9556 1.95998 16.9722 2.05933C17.0914 2.68526 17.2173 3.31451 17.3332 3.94044C17.3829 4.2087 17.3729 4.21863 17.6412 4.27162C18.2671 4.39747 18.893 4.52001 19.5223 4.63261C19.6614 4.6591 19.7044 4.70215 19.6746 4.84787C19.5322 5.53673 19.3997 6.2289 19.2606 6.92107C19.2408 7.02373 19.264 7.08997 19.3567 7.1562C19.9462 7.54368 20.5258 7.94441 21.1153 8.33189C21.2378 8.41469 21.2444 8.4743 21.1649 8.5869C20.7841 9.13998 20.4132 9.70298 20.0323 10.2527C19.9594 10.3587 19.9661 10.4283 20.0356 10.5276C20.4198 11.0873 20.7907 11.6536 21.1782 12.21C21.2577 12.3226 21.2312 12.369 21.1318 12.4385C20.5489 12.826 19.9727 13.2201 19.3865 13.6043C19.2673 13.6805 19.2408 13.7599 19.2673 13.8891C19.4064 14.5813 19.5388 15.2734 19.6779 15.9623C19.7011 16.0815 19.668 16.1113 19.5554 16.1345C18.8897 16.257 18.2274 16.3961 17.5584 16.5154C17.4027 16.5419 17.3663 16.628 17.3431 16.7538C17.2173 17.4096 17.0881 18.062 16.9656 18.7144C16.9424 18.8403 16.9026 18.8668 16.7735 18.8403C16.0747 18.6912 15.3693 18.5588 14.6672 18.4197C14.5711 18.3998 14.5215 18.4296 14.4652 18.5124C14.071 19.1052 13.667 19.6881 13.2762 20.2809C13.1901 20.4101 13.1305 20.4034 13.0179 20.3273C12.4615 19.9431 11.8952 19.5689 11.3388 19.1847C11.2527 19.1251 11.1964 19.1218 11.107 19.1814C10.534 19.5722 9.95447 19.953 9.38153 20.3471C9.28218 20.4167 9.24243 20.3968 9.17951 20.3041C8.78872 19.7179 8.3913 19.135 8.00382 18.5488C7.93096 18.4395 7.86472 18.3998 7.72563 18.4296C7.03677 18.5753 6.3446 18.7012 5.65244 18.8403C5.53652 18.8634 5.49678 18.8403 5.4736 18.7111C5.35106 18.0355 5.21197 17.3599 5.08612 16.6843C5.06956 16.5882 5.0265 16.5419 4.93046 16.522C4.28797 16.3995 3.64217 16.2769 2.99968 16.1478C2.91357 16.1312 2.77779 16.1577 2.75792 16.0352ZM16.2767 8.33852C16.2701 8.27559 16.2237 8.24579 16.1906 8.21267C15.9157 7.93448 15.6408 7.65629 15.3593 7.38472C15.1375 7.16945 15.207 7.1562 14.9752 7.38472C13.508 8.84854 12.0442 10.3124 10.5837 11.7828C10.4777 11.8888 10.4247 11.8822 10.3254 11.7795C9.66635 11.1138 9.00067 10.4548 8.34162 9.78909C8.2522 9.69967 8.20584 9.70298 8.11973 9.78909C7.82498 10.0938 7.52692 10.3952 7.21892 10.6866C7.11625 10.7859 7.13281 10.8389 7.22554 10.9284C8.25552 11.955 9.28549 12.9817 10.3088 14.015C10.4281 14.1342 10.4943 14.1408 10.6102 14.0183C10.948 13.6639 11.2958 13.3195 11.6435 12.9717C12.1138 12.5015 12.5907 12.0312 13.0609 11.5609C13.5014 11.1204 13.9353 10.6767 14.3757 10.2362C14.9851 9.63012 15.5945 9.02406 16.2039 8.418C16.2337 8.39482 16.2568 8.36501 16.2767 8.33852Z" fill="url(#paint0_linear_661_40017)"/>
<path d="M16.2764 8.33838C16.2565 8.36487 16.2333 8.39468 16.2069 8.42118C15.5975 9.02724 14.9881 9.6333 14.3787 10.2394C13.9383 10.6798 13.5011 11.1236 13.064 11.5641C12.5937 12.0344 12.1168 12.5046 11.6465 12.9749C11.2988 13.3226 10.951 13.6671 10.6132 14.0214C10.4973 14.1407 10.4311 14.1374 10.3118 14.0181C9.28849 12.9848 8.25852 11.9582 7.22855 10.9315C7.13582 10.8388 7.11595 10.7858 7.22192 10.6898C7.52992 10.3983 7.82798 10.0969 8.12274 9.79226C8.20884 9.70284 8.25852 9.70284 8.34463 9.79226C9.00368 10.4579 9.66935 11.117 10.3284 11.7827C10.4278 11.8853 10.4807 11.8919 10.5867 11.786C12.0472 10.3155 13.5144 8.85171 14.9782 7.38789C15.2067 7.15938 15.1405 7.17262 15.3623 7.38789C15.6438 7.65946 15.9187 7.94096 16.1936 8.21584C16.2234 8.24565 16.2698 8.27546 16.2764 8.33838Z" fill="#FBFDFD"/>
</g>
<defs>
<linearGradient id="paint0_linear_661_40017" x1="1.22607" y1="0.386475" x2="21.2248" y2="0.386475" gradientUnits="userSpaceOnUse">
<stop stop-color="#4474EE"/>
<stop offset="1" stop-color="#CB75FF"/>
</linearGradient>
<clipPath id="clip0_661_40017">
<rect width="20" height="20" fill="white" transform="translate(0.773926 0.386719)"/>
</clipPath>
</defs>
</svg>
