<svg width="58" height="58" viewBox="0 0 58 58" fill="none" xmlns="http://www.w3.org/2000/svg">
<path d="M57.3346 29.0001C57.3346 36.5145 54.3495 43.7212 49.036 49.0348C43.7225 54.3483 36.5158 57.3334 29.0013 57.3334C25.2805 57.3334 21.5962 56.6006 18.1586 55.1767C14.721 53.7528 11.5976 51.6658 8.96661 49.0348C3.65308 43.7212 0.667969 36.5145 0.667969 29.0001C0.667969 21.4856 3.65308 14.2789 8.96661 8.96539C14.2801 3.65186 21.4868 0.666748 29.0013 0.666748C32.7221 0.666748 36.4064 1.39961 39.844 2.82349C43.2816 4.24738 46.405 6.3344 49.036 8.96539C51.667 11.5964 53.754 14.7198 55.1779 18.1574C56.6018 21.5949 57.3346 25.2793 57.3346 29.0001ZM51.668 29.0001C51.668 22.9885 49.2799 17.2232 45.0291 12.9723C40.7782 8.7215 35.0129 6.33341 29.0013 6.33341C22.9897 6.33341 17.2244 8.7215 12.9735 12.9723C8.72272 17.2232 6.33464 22.9885 6.33464 29.0001C6.33464 35.0117 8.72272 40.777 12.9735 45.0278C17.2244 49.2787 22.9897 51.6667 29.0013 51.6667C35.0129 51.6667 40.7782 49.2787 45.0291 45.0278C49.2799 40.777 51.668 35.0117 51.668 29.0001ZM19.368 42.0334L32.4013 29.0001L19.368 15.9667L23.3346 12.0001L40.3346 29.0001L23.3346 46.0001L19.368 42.0334Z" fill="#FD7728"/>
</svg>
